# xmcd
#
# Track frame offsets: 
#        151
#        21059
#        33665
#        52628
#        68218
#        83891
#        97630
#        111484
#        124464
#        138932
#        154070
#        172650
#        184486
#        200228
#        214391
#        228688
#
# Disc length: 3410 seconds
#
# Revision: 1
# Processed by: cddbd v1.5.2PL0 Copyright (c) Steve Scherf et al.
# Submitted via: ExactAudioCopy v0.95a5
#
DISCID=e20d5010
DTITLE=蔡琴 - 一致公认的最发烧人声试音天碟 Vol. 2
DYEAR=1900
DGENRE=Blues
TTITLE0=初恋女
TTITLE1=今宵多珍重
TTITLE2=意难忘
TTITLE3=绿岛小夜曲
TTITLE4=我有一段情
TTITLE5=魂萦旧梦
TTITLE6=明月千里寄相思
TTITLE7=空中歌声
TTITLE8=月光组曲
TTITLE9=问白云
TTITLE10=飘零的落花
TTITLE11=梦里相思
TTITLE12=红蔷薇
TTITLE13=昨夜你对我一笑
TTITLE14=送别
TTITLE15=庭院深深
EXTD=
EXTT0=
EXTT1=
EXTT2=
EXTT3=
EXTT4=
EXTT5=
EXTT6=
EXTT7=
EXTT8=
EXTT9=
EXTT10=
EXTT11=
EXTT12=
EXTT13=
EXTT14=
EXTT15=
PLAYORDER=
